<svg width="164" height="164" viewBox="0 0 164 164" fill="none" xmlns="http://www.w3.org/2000/svg">
<path d="M7 40.3333V23.6667C7 19.2464 8.75595 15.0072 11.8816 11.8816C15.0072 8.75595 19.2464 7 23.6667 7H40.3333M123.667 7H140.333C144.754 7 148.993 8.75595 152.118 11.8816C155.244 15.0072 157 19.2464 157 23.6667V40.3333M157 123.667V140.333C157 144.754 155.244 148.993 152.118 152.118C148.993 155.244 144.754 157 140.333 157H123.667M40.3333 157H23.6667C19.2464 157 15.0072 155.244 11.8816 152.118C8.75595 148.993 7 144.754 7 140.333V123.667" stroke="white" stroke-width="12.5" stroke-linecap="round" stroke-linejoin="round"/>
</svg>
